<?xml version="1.0" ?><!DOCTYPE svg  PUBLIC '-//W3C//DTD SVG 1.1//EN'  'http://www.w3.org/Graphics/SVG/1.1/DTD/svg11.dtd'><svg enable-background="new 0 0 128 128" id="Слой_1" version="1.1" viewBox="0 0 128 128" xml:space="preserve" xmlns="http://www.w3.org/2000/svg" xmlns:xlink="http://www.w3.org/1999/xlink"><g><circle cx="64" cy="64" fill="#EBDEEE" r="62"/><g><g><path d="M70.4,32.6c-0.5-0.5-1.3-0.5-1.8,0s-0.5,1.3,0,1.8l25,25c0.2,0.2,0.6,0.4,0.9,0.4s0.6-0.1,0.9-0.4     c0.5-0.5,0.5-1.3,0-1.8L70.4,32.6z" fill="#62345B"/></g><g><path d="M84.8,41.3L54.2,72.1c-0.5,0.5-0.5,1.3,0,1.8c0.2,0.2,0.6,0.4,0.9,0.4c0.3,0,0.6-0.1,0.9-0.4l30.7-30.8     c0.5-0.5,0.5-1.3,0-1.8C86.1,40.8,85.3,40.8,84.8,41.3z" fill="#62345B"/></g><g><circle cx="55" cy="73" fill="#EE7F8F" r="4"/></g><g><path d="M55,67.7c-2.9,0-5.3,2.4-5.3,5.3s2.4,5.3,5.3,5.3s5.3-2.4,5.3-5.3S57.9,67.7,55,67.7z M55,75.7     c-1.5,0-2.8-1.2-2.8-2.8s1.2-2.8,2.8-2.8s2.8,1.2,2.8,2.8S56.6,75.7,55,75.7z" fill="#62345B"/></g><g opacity="0.2"><g><path d="M59.8,77.7c-1.3,1.3-3,2-4.8,2c-1.8,0-3.5-0.7-4.8-2s-2-3-2-4.8c0-1.8,0.7-3.5,2-4.8      c0.5-0.5,0.5-1.3,0-1.8s-1.3-0.5-1.8,0c-1.8,1.8-2.7,4.1-2.7,6.6c0,2.5,1,4.8,2.7,6.6c1.8,1.8,4.1,2.7,6.6,2.7      c2.5,0,4.8-1,6.6-2.7c0.5-0.5,0.5-1.3,0-1.8S60.3,77.3,59.8,77.7z" fill="#62345B"/></g><g><path d="M62.7,80.6c-4.2,4.2-11,4.2-15.3,0c-2-2-3.2-4.7-3.2-7.6s1.1-5.6,3.2-7.6c0.5-0.5,0.5-1.3,0-1.8      s-1.3-0.5-1.8,0c-2.5,2.5-3.9,5.8-3.9,9.4c0,3.5,1.4,6.9,3.9,9.4c2.6,2.6,6,3.9,9.4,3.9c3.4,0,6.8-1.3,9.4-3.9      c0.5-0.5,0.5-1.3,0-1.8S63.2,80.1,62.7,80.6z" fill="#62345B"/></g><g><path d="M65.5,83.4c-2.8,2.8-6.5,4.3-10.5,4.3s-7.7-1.5-10.5-4.3c-5.8-5.8-5.8-15.2,0-20.9      c0.5-0.5,0.5-1.3,0-1.8s-1.3-0.5-1.8,0c-6.7,6.7-6.7,17.7,0,24.5c3.3,3.3,7.6,5.1,12.2,5.1s9-1.8,12.2-5.1      c0.5-0.5,0.5-1.3,0-1.8S66,82.9,65.5,83.4z" fill="#62345B"/></g></g><g><path d="M78.4,32.6l-14,14c-6-0.9-12.4,1-17,5.7l28.4,28.4c4.6-4.6,6.5-11,5.7-17l14-14c4.7-4.7,4.7-12.3,0-17     C90.7,27.9,83.1,27.9,78.4,32.6z" fill="#ADA2B5"/></g><g><path d="M86.9,27.8c-3.5,0-6.9,1.4-9.4,3.9L64,45.2c-0.8-0.1-1.6-0.1-2.4-0.1c-5.7,0-11,2.2-15.1,6.2     c-0.5,0.5-0.5,1.3,0,1.8l28.4,28.4c0.2,0.2,0.6,0.4,0.9,0.4s0.6-0.1,0.9-0.4c4.6-4.6,6.8-11,6.1-17.5l13.6-13.6     c2.5-2.5,3.9-5.8,3.9-9.4c0-3.5-1.4-6.9-3.9-9.4C93.8,29.2,90.5,27.8,86.9,27.8z M94.5,48.7l-14,14c-0.3,0.3-0.4,0.7-0.4,1.1     c0.8,5.5-0.8,10.9-4.5,15L49.2,52.3c3.4-3,7.8-4.7,12.4-4.7c0.9,0,1.8,0.1,2.7,0.2c0.4,0.1,0.8-0.1,1.1-0.4l14-14     c2-2,4.7-3.2,7.6-3.2c2.9,0,5.6,1.1,7.6,3.2s3.2,4.7,3.2,7.6S96.6,46.7,94.5,48.7z" fill="#62345B"/></g><g><path d="M65.1,45.9c-0.5-0.5-1.3-0.5-1.8,0s-0.5,1.3,0,1.8l17,17c0.2,0.2,0.6,0.4,0.9,0.4s0.6-0.1,0.9-0.4     c0.5-0.5,0.5-1.3,0-1.8L65.1,45.9z" fill="#62345B"/></g><g><path d="M79.9,31.8c-0.5-0.5-1.3-0.5-1.8,0c-0.5,0.5-0.5,1.3,0,1.8l2.1,2.1c0.2,0.2,0.6,0.4,0.9,0.4     c0.3,0,0.6-0.1,0.9-0.4c0.5-0.5,0.5-1.3,0-1.8L79.9,31.8z" fill="#62345B"/><path d="M86.4,38.3c-0.5-0.5-1.3-0.5-1.8,0s-0.5,1.3,0,1.8l2.1,2.1c0.2,0.2,0.6,0.4,0.9,0.4s0.6-0.1,0.9-0.4     c0.5-0.5,0.5-1.3,0-1.8L86.4,38.3z" fill="#62345B"/><path d="M93,44.8c-0.5-0.5-1.3-0.5-1.8,0c-0.5,0.5-0.5,1.3,0,1.8l2.1,2.1c0.2,0.2,0.6,0.4,0.9,0.4     s0.6-0.1,0.9-0.4c0.5-0.5,0.5-1.3,0-1.8L93,44.8z" fill="#62345B"/></g><g opacity="0.2"><polygon fill="#62345B" points="75.8,58.3 75.8,58.3 81.2,63.8    "/><path d="M92.1,30.2c2.1,4.5,1.4,10-2.3,13.7L75.6,58.1l0.2,0.2l0,0l5.4,5.4l-5.4-5.4c0.7,5.9-1.2,12.1-5.7,16.6     l5.7,5.7c4.6-4.6,6.5-11,5.7-17l14-14c4.7-4.7,4.7-12.3,0-17C94.4,31.6,93.3,30.8,92.1,30.2z" fill="#62345B"/></g><g><path d="M117.5,70.8c-0.6-0.1-1.1-0.6-1.3-1.3l-2.4-12.1c-0.1-0.6-0.6-1.1-1.3-1.3l-13.1-2.6L88.1,64.9l13.1,2.6     c0.6,0.1,1.1,0.6,1.3,1.3l2.4,12.1c0.1,0.6,0.6,1.1,1.3,1.3l11.5,2.3c1.1,0.2,2.1-0.1,2.9-0.9l3.3-3.3c0.7-2.6,1.2-5.2,1.6-7.9     L117.5,70.8z" fill="#FFFFFF"/></g><g><path d="M119.6,82.7c-0.5,0.5-1.1,0.7-1.8,0.5L106.4,81c-0.1,0-0.2-0.1-0.3-0.3l-2.4-12.1c-0.2-1.1-1.1-2-2.2-2.2     l-10.8-2.2l9.2-9.2l12.5,2.5c0.1,0,0.2,0.1,0.3,0.3l2.4,12.1c0.2,1.1,1.1,2,2.2,2.2l8,1.6c0.1-0.8,0.2-1.7,0.3-2.5l-7.8-1.6     c-0.1,0-0.2-0.1-0.3-0.3l-2.4-12.1c-0.2-1.1-1.1-2-2.2-2.2l-13.1-2.6c-0.4-0.1-0.8,0-1.1,0.3L87.2,64.1c-0.3,0.3-0.4,0.8-0.3,1.2     c0.1,0.4,0.5,0.8,1,0.9l13.1,2.6c0.1,0,0.2,0.1,0.3,0.3l2.4,12.1c0.2,1.1,1.1,2,2.2,2.2l11.5,2.3c0.3,0.1,0.6,0.1,0.9,0.1     c1.2,0,2.3-0.5,3.2-1.3l1.7-1.7c0.5-1.6,1-3.2,1.3-4.9L119.6,82.7z" fill="#62345B"/></g><g opacity="0.2"><path d="M113.8,57.5c-0.1-0.3-0.2-0.6-0.4-0.8l-11.1,11.1l0.2,1l0,0l2.4,12.1c0.1,0.3,0.2,0.6,0.4,0.8l11.1-11.1     L113.8,57.5z" fill="#62345B"/></g><g><path d="M43.5,10.4l2.3,11.5c0.1,0.6,0.6,1.1,1.3,1.3l12.1,2.4c0.6,0.1,1.1,0.6,1.3,1.3l2.6,13.1l11.3-11.3     l-2.6-13.1c-0.1-0.6-0.6-1.1-1.3-1.3l-12.1-2.4c-0.6-0.1-1.1-0.6-1.3-1.3l-1.6-7.9c-2.7,0.4-5.3,0.9-7.9,1.6l-3.3,3.3     C43.7,8.2,43.3,9.3,43.5,10.4z" fill="#FFFFFF"/></g><g><path d="M42.3,10.6l2.3,11.5c0.2,1.1,1.1,2,2.2,2.2l12.1,2.4c0.1,0,0.2,0.1,0.3,0.3l2.6,13.1     c0.1,0.5,0.4,0.8,0.9,1c0.1,0,0.2,0.1,0.4,0.1c0.3,0,0.6-0.1,0.9-0.4l11.3-11.3c0.3-0.3,0.4-0.7,0.3-1.1L73,15.2     c-0.2-1.1-1.1-2-2.2-2.2l-12.1-2.4c-0.1,0-0.2-0.1-0.3-0.3l-1.6-7.8c-0.8,0.1-1.7,0.2-2.5,0.3l1.6,8c0.2,1.1,1.1,2,2.2,2.2     l12.1,2.4c0.1,0,0.3,0.1,0.3,0.3L73,28.1l-9.2,9.2l-2.2-10.8c-0.2-1.1-1.1-2-2.2-2.2l-12.1-2.4c-0.1,0-0.2-0.1-0.3-0.3l-2.3-11.5     c-0.1-0.6,0.1-1.3,0.5-1.8l4.8-4.8c-1.6,0.4-3.3,0.8-4.9,1.3l-1.7,1.7C42.5,7.7,42,9.2,42.3,10.6z" fill="#62345B"/></g><g opacity="0.2"><path d="M71.3,14.6L60.2,25.7l0.2,1h0l2.6,13.1l11.3-11.3l-2.6-13.1C71.7,15.1,71.6,14.8,71.3,14.6z" fill="#62345B"/></g><g opacity="0.2"><path d="M43.5,10.4l2.3,11.5c0.1,0.3,0.2,0.6,0.4,0.8l11.1-11.1l-1.6-7.8l-0.2-1.1c-2.7,0.4-5.3,0.9-7.9,1.6     l-3.3,3.3C43.7,8.2,43.3,9.3,43.5,10.4z" fill="#62345B"/></g></g><path d="M20.2,107.8c-0.7-0.7-1.4-1.4-2-2.1C18.8,106.4,19.5,107.1,20.2,107.8z" fill="#9DD9DF"/><path d="M22.3,109.9c-0.7-0.7-1.4-1.3-2.1-2C20.9,108.5,21.6,109.2,22.3,109.9z" fill="#9DD9DF"/><path d="M24.5,111.8c-0.5-0.4-1-0.9-1.5-1.3C23.5,110.9,24,111.4,24.5,111.8z" fill="#9DD9DF"/><path d="M26.8,113.6c-0.5-0.4-1-0.8-1.5-1.1C25.8,112.8,26.3,113.2,26.8,113.6z" fill="#9DD9DF"/><path d="M13.8,100.3c-0.4-0.5-0.8-1.1-1.2-1.7C13,99.2,13.4,99.8,13.8,100.3z" fill="#9DD9DF"/><path d="M17.5,105c-0.4-0.5-0.9-1-1.3-1.5C16.6,104,17.1,104.5,17.5,105z" fill="#9DD9DF"/><path d="M12.1,98c-0.5-0.8-1-1.5-1.5-2.3C11.1,96.4,11.6,97.2,12.1,98z" fill="#9DD9DF"/><path d="M29.3,115.4c-0.6-0.4-1.1-0.8-1.7-1.2C28.2,114.6,28.8,115,29.3,115.4z" fill="#9DD9DF"/><path d="M10.2,94.8c-0.3-0.5-0.6-1.1-0.9-1.6C9.6,93.7,9.9,94.3,10.2,94.8z" fill="#9DD9DF"/><path d="M15.5,102.7c-0.4-0.5-0.8-1-1.1-1.5C14.8,101.7,15.2,102.2,15.5,102.7z" fill="#9DD9DF"/><path d="M46,123.3c-0.5-0.1-0.9-0.3-1.4-0.5C45,123,45.5,123.2,46,123.3z" fill="#9DD9DF"/><path d="M32.4,117.3c-0.8-0.5-1.6-1-2.3-1.5C30.8,116.4,31.6,116.9,32.4,117.3z" fill="#9DD9DF"/><path d="M48.6,124.1c-0.4-0.1-0.8-0.2-1.2-0.3C47.8,123.8,48.2,124,48.6,124.1z" fill="#9DD9DF"/><path d="M51.2,124.7c-0.4-0.1-0.8-0.2-1.2-0.3C50.4,124.5,50.8,124.6,51.2,124.7z" fill="#9DD9DF"/><path d="M42.5,122.2c-0.5-0.2-1-0.4-1.5-0.6C41.5,121.8,42,122,42.5,122.2z" fill="#9DD9DF"/><path d="M39.8,121.1c-0.5-0.2-0.9-0.4-1.4-0.6C38.9,120.7,39.4,120.9,39.8,121.1z" fill="#9DD9DF"/><path d="M34.8,118.7c-0.5-0.3-1.1-0.6-1.6-0.9C33.7,118.1,34.3,118.4,34.8,118.7z" fill="#9DD9DF"/><path d="M37.3,120c-0.5-0.2-0.9-0.5-1.4-0.7C36.3,119.5,36.8,119.7,37.3,120z" fill="#9DD9DF"/><path d="M53.9,125.2c-0.4-0.1-0.8-0.1-1.1-0.2C53.1,125,53.5,125.1,53.9,125.2z" fill="#9DD9DF"/><path d="M7.5,89.6c-0.2-0.5-0.4-0.9-0.6-1.4C7.1,88.6,7.3,89.1,7.5,89.6z" fill="#9DD9DF"/><path d="M6.4,87c-0.2-0.5-0.4-1-0.6-1.5C6,86,6.2,86.5,6.4,87z" fill="#9DD9DF"/><path d="M5.1,83.4C5,83,4.8,82.5,4.7,82C4.8,82.5,5,83,5.1,83.4z" fill="#9DD9DF"/><polygon fill="#9DD9DF" points="2.6,72.6 2.6,72.6 2.6,72.6  "/><path d="M3,75.3c-0.1-0.4-0.1-0.8-0.2-1.1C2.9,74.5,3,74.9,3,75.3z" fill="#9DD9DF"/><path d="M4.3,80.6c-0.1-0.4-0.2-0.8-0.3-1.2C4,79.8,4.2,80.2,4.3,80.6z" fill="#9DD9DF"/><path d="M8.7,92.1c-0.2-0.5-0.5-0.9-0.7-1.4C8.3,91.2,8.5,91.7,8.7,92.1z" fill="#9DD9DF"/><path d="M3.6,77.9c-0.1-0.4-0.2-0.8-0.3-1.2C3.4,77.2,3.5,77.6,3.6,77.9z" fill="#9DD9DF"/><path d="M37.8,90.2c-9.9-9.9-22.3-15.8-35.2-17.6l0,0c0.1,0.5,0.2,1,0.2,1.5C2.9,74.5,3,74.9,3,75.3   c0.1,0.5,0.2,1,0.3,1.5c0.1,0.4,0.2,0.8,0.3,1.2c0.1,0.5,0.2,1,0.4,1.5c0.1,0.4,0.2,0.8,0.3,1.2c0.1,0.5,0.3,0.9,0.4,1.4   C4.8,82.5,5,83,5.1,83.4c0.2,0.7,0.5,1.4,0.7,2.1C6,86,6.2,86.5,6.4,87c0.2,0.4,0.3,0.8,0.5,1.2c0.2,0.5,0.4,0.9,0.6,1.4   c0.2,0.4,0.4,0.8,0.5,1.2c0.2,0.5,0.5,0.9,0.7,1.4c0.2,0.4,0.4,0.7,0.6,1.1c0.3,0.5,0.6,1.1,0.9,1.6c0.2,0.3,0.3,0.6,0.5,0.8   c0.5,0.8,1,1.6,1.5,2.3c0.2,0.2,0.3,0.5,0.5,0.7c0.4,0.6,0.8,1.1,1.2,1.7c0.2,0.3,0.4,0.6,0.6,0.9c0.4,0.5,0.8,1,1.1,1.5   c0.2,0.3,0.4,0.6,0.7,0.8c0.4,0.5,0.9,1,1.3,1.5c0.2,0.2,0.4,0.5,0.6,0.7c0.7,0.7,1.3,1.4,2,2.1c0.7,0.7,1.4,1.4,2.1,2   c0.2,0.2,0.5,0.4,0.7,0.6c0.5,0.4,1,0.9,1.5,1.3c0.3,0.2,0.6,0.5,0.8,0.7c0.5,0.4,1,0.8,1.5,1.1c0.3,0.2,0.6,0.4,0.9,0.6   c0.5,0.4,1.1,0.8,1.7,1.2c0.2,0.2,0.5,0.3,0.7,0.5c0.8,0.5,1.5,1,2.3,1.5c0.3,0.2,0.5,0.3,0.8,0.5c0.5,0.3,1.1,0.6,1.6,0.9   c0.4,0.2,0.7,0.4,1.1,0.6c0.5,0.2,0.9,0.5,1.4,0.7c0.4,0.2,0.8,0.4,1.2,0.5c0.5,0.2,0.9,0.4,1.4,0.6c0.4,0.2,0.8,0.3,1.2,0.5   c0.5,0.2,1,0.4,1.5,0.6c0.7,0.3,1.4,0.5,2.1,0.7c0.5,0.2,0.9,0.3,1.4,0.5c0.5,0.1,0.9,0.3,1.4,0.4c0.4,0.1,0.8,0.2,1.2,0.3   c0.5,0.1,1,0.2,1.5,0.4c0.4,0.1,0.8,0.2,1.2,0.3c0.5,0.1,1,0.2,1.5,0.3c0.4,0.1,0.8,0.1,1.1,0.2c0.5,0.1,1,0.2,1.5,0.2   C53.6,112.5,47.8,100.1,37.8,90.2z" fill="#9DD9DF"/><polygon fill="#62345B" points="56.6,125.5 56.6,125.5 56.6,125.5  "/><path d="M38.7,89.3c-9.8-9.8-22.2-16-35.9-17.9c-0.1,0-0.2,0-0.3,0c0.1,0.8,0.2,1.7,0.4,2.5   c13,1.9,24.8,7.8,34.1,17.1c9.3,9.3,15.2,21.1,17.1,34.1c0.8,0.1,1.7,0.3,2.5,0.4h0c0-0.1,0-0.2,0-0.3   C54.7,111.5,48.5,99.1,38.7,89.3z" fill="#62345B"/></g></svg>