<svg id="icon" xmlns="http://www.w3.org/2000/svg" viewBox="0 0 512 512"><defs><style>.cls-1{fill:#ffca5f;}.cls-2{fill:#79c7e2;}.cls-3{fill:#f7899e;}.cls-4{fill:#376782;}</style></defs><title>pie graph data</title><path class="cls-1" d="M164.92,256.57A91.08,91.08,0,0,1,256,165.49V108.9A147.67,147.67,0,0,0,154.87,364.17l38.77-41.25A90.79,90.79,0,0,1,164.92,256.57Z"/><path class="cls-2" d="M256,404.24a147,147,0,0,0,61.93-13.59l-23.74-51.4a91,91,0,0,1-100.55-16.33l-38.77,41.25h0A147.19,147.19,0,0,0,256,404.24Z"/><path class="cls-3" d="M256,108.9h0v56.59h0a91.08,91.08,0,0,1,38.19,173.76l23.74,51.4A147.68,147.68,0,0,0,256,108.9Z"/><path class="cls-4" d="M105.25,99.26H37.58a5.47,5.47,0,0,0,0,10.94h67.67a5.47,5.47,0,0,0,0-10.94Z"/><path class="cls-4" d="M92,131.6a5.47,5.47,0,0,0,0,10.94h14.4a5.47,5.47,0,0,0,0-10.94Z"/><path class="cls-4" d="M37.58,142.54h28a5.47,5.47,0,0,0,0-10.94h-28a5.47,5.47,0,0,0,0,10.94Z"/><path class="cls-4" d="M474.42,65H406.75a5.47,5.47,0,0,0,0,10.94h67.67a5.47,5.47,0,0,0,0-10.94Z"/><path class="cls-4" d="M474.42,32.69H409.28A46.17,46.17,0,0,0,370,54.75l-58.46,84.76a5.47,5.47,0,0,0,9,6.21l7.93-11.5a142.24,142.24,0,0,1-8,249.07l-19.18-41.52a96.52,96.52,0,0,0-39.9-181.58V114.48a141.59,141.59,0,0,1,41,7.65,5.35,5.35,0,0,0,1.79.31A5.47,5.47,0,0,0,306,111.8a153.37,153.37,0,0,0-136.78,18.56L142,89.05a46.15,46.15,0,0,0-39.27-22.12H37.58a5.47,5.47,0,0,0,0,10.94h65.14a35.16,35.16,0,0,1,30,16.92l.12.19,44.8,67.88a5.47,5.47,0,0,0,9.13-6l-11.44-17.34a140.79,140.79,0,0,1,75.24-25v45.71a96.66,96.66,0,0,0-91.08,96.38A95.49,95.49,0,0,0,186,323l-31.31,33.31a142.17,142.17,0,0,1-6.16-192.92,5.47,5.47,0,1,0-8.26-7.17,153.19,153.19,0,0,0,50.8,239A32.42,32.42,0,0,1,164,410H78.35a5.47,5.47,0,1,0,0,10.93H164a43.43,43.43,0,0,0,37-21l17.25-29.83a5.47,5.47,0,1,0-9.47-5.48l-12.21,21.12a141.72,141.72,0,0,1-34-21.94L194,330.53a96.41,96.41,0,0,0,97.45,15.84l19.18,41.51A141.07,141.07,0,0,1,256,398.77a143.36,143.36,0,0,1-30.14-3.2,5.47,5.47,0,0,0-2.31,10.69A153.82,153.82,0,0,0,256,409.71a151.83,151.83,0,0,0,64.22-14.09h0a153.17,153.17,0,0,0,14.5-270.41l44.41-64.38.18-.28a35.17,35.17,0,0,1,30-16.93h65.14a5.47,5.47,0,1,0,0-10.93Zm-277,286.24a84.77,84.77,0,0,1-27-62.36A85.61,85.61,0,1,1,291.9,334.28h0a85.53,85.53,0,0,1-94.5-15.36Z"/><path class="cls-4" d="M420,97.35H405.58a5.47,5.47,0,1,0,0,10.94H420a5.47,5.47,0,0,0,0-10.94Z"/><path class="cls-4" d="M474.42,97.35h-28a5.47,5.47,0,0,0,0,10.94h28a5.47,5.47,0,0,0,0-10.94Z"/><path class="cls-4" d="M99.78,473.85a5.46,5.46,0,0,0,5.47,5.46h49.59a5.47,5.47,0,1,0,0-10.93H105.25A5.46,5.46,0,0,0,99.78,473.85Z"/><path class="cls-4" d="M172.76,449.17a5.47,5.47,0,1,0,0-10.93H144.21a5.47,5.47,0,1,0,0,10.93Z"/><path class="cls-4" d="M125.94,438.24H90.21a5.47,5.47,0,1,0,0,10.93h35.73a5.47,5.47,0,1,0,0-10.93Z"/></svg>