<svg id="Gradient" height="512" viewBox="0 0 512 512" width="512" xmlns="http://www.w3.org/2000/svg" xmlns:xlink="http://www.w3.org/1999/xlink"><linearGradient id="linear-gradient" gradientUnits="userSpaceOnUse" x1="256" x2="256" y1="496" y2="16"><stop offset="0" stop-color="#12c2e9"/><stop offset=".5" stop-color="#c471ed"/><stop offset="1" stop-color="#f64f59"/></linearGradient><path d="m464 496a32.037 32.037 0 0 1 -32-32v-256a128 128 0 0 0 -256.007 0v160l38.4-51.2a32 32 0 0 1 51.2 38.4l-96 128a32 32 0 0 1 -51.2 0l-96-128a32 32 0 0 1 51.2-38.4l38.4 51.2v-160c0-105.869 86.133-192 192.006-192s192.001 86.131 192.001 192v256a32.037 32.037 0 0 1 -32 32zm-160-432c79.4 0 144 64.6 144 144v256a16 16 0 0 0 32 0v-256c0-97.047-78.956-176-176-176s-176 78.953-176 176v184a8 8 0 0 1 -14.4 4.8l-52.8-70.4a16 16 0 0 0 -25.6 19.2l96 128a16 16 0 0 0 25.6 0l96-128a16 16 0 1 0 -25.6-19.2l-52.8 70.4a8 8 0 0 1 -14.4-4.8v-184c-.009-79.4 64.59-144 144-144z" fill="url(#linear-gradient)"/></svg>